<svg xmlns="http://www.w3.org/2000/svg" xmlns:xlink="http://www.w3.org/1999/xlink" version="1.1" x="0px" y="0px" viewBox="0 0 981.309 862.907" enable-background="new 0 0 981.309 862.907" xml:space="preserve"><g><path fill-rule="evenodd" clip-rule="evenodd" fill="#FFFFFF" d="M468.844 4.821c46.485-1.106 103.546-1.837 125.8 22.1 c-1.065 29.179-26.666 47.464-38.717 67.754c-19.383 32.636-19.382 65.41-27.655 109.236c-5.019 26.587-11.943 66.2 8.3 76.1 c18.729 11.7 58.6 5.9 58.075-13.827c-2.305 0-4.609 0-6.914 0c-3.642 6.975-0.893 5.368-6.914 4.1 c0-1.844 0-3.687 0-5.531c0.316-3.165-0.668-2.114 1.383-5.531c7.748-16.896 47.721-21.848 66.371-11.062 c-5.175 36.575-1.817 72.332-19.358 98.174c-28.574-3.687-57.156-7.375-85.73-11.062c-24.589-4.054-48.154 1.45-69.137-1.383 c1.5-15.996-18.534-53.657-23.507-78.816c-9.872-49.953 8.962-96.307 16.593-141.039c6.525-38.249-16.854-67.593-11.062-99.557 C460.547 11.3 464.7 8 468.8 4.821z"/><path fill-rule="evenodd" clip-rule="evenodd" fill="#FFFFFF" d="M441.189 10.352c2.326 35.3 24.5 65.5 16.6 112 c-6.557 38.457-29.704 78.578-22.124 124.446c5.617 34 20.7 58.8 26.3 87.112c-0.922 0.922-1.844 1.844-2.765 2.8 c-17.731 8.624-63.812 12.888-81.582 4.148c-14.26-58.565-57.524-154.388-17.976-221.238c12.685 5.6 34.8 6.5 41.482-5.531 c4.816-4.83 5.809-10.519 5.531-20.741c-0.461 0-0.922 0-1.383 0c-1.474 10.858-6.074 12.498-12.445 18 c-35.933 2.897-37.022-17.626-31.803-51.161c2.233-14.348-2.896-22.498 2.765-31.803C388.158 18.8 407.4 10.1 441.2 10.4 z"/><path fill-rule="evenodd" clip-rule="evenodd" fill="#FFFFFF" d="M341.632 39.389c15.81 7.1 12.9 40.7 8.3 59.5 c-10.749 43.945-21.77 101.632-9.679 150.718c5.162 21 31.4 85.6 24.9 100.94c-0.461 0-0.922 0-1.383 0 c-1.383 0-2.765 0-4.148 0c-15.727-69.477-91.98-74.216-112.002-142.422c2.305-3.687 4.609-7.375 6.914-11.062 c10.445-3.008 18.159-1.233 24.9 1.383c-1.132-8.098-3.303-8.897-6.914-13.827c-3.226 0-6.453 0-9.679 0 c-30.709 6.429-27.178 49.709-30.42 80.199c-1.383 0-2.765 0-4.148 0c-2.595-19.722-15.759-44.691-38.717-40.099 c-8.701 6.309-11.707 13.898-11.062 26.272c9.803-7.699 14.105-9.169 24.889-1.383c22.022 51.4 44.1 102.5 29 178.4 c-18.35-6.331-31.868-41.645-42.865-56.692c-31.161-42.637-66.9-87.213-125.829-98.174c4.55-48.623 47.842-80.865 74.668-109.236 c6.913 0.9 13.8 1.8 20.7 2.765c1.383 2.3 2.8 4.6 4.1 6.914c0.445 14.439-4.441 22.797-17.976 23.5 c0.461 1.4 0.9 2.8 1.4 4.148c1.383 0.5 2.8 0.9 4.1 1.383c3.226 0 6.5 0 9.7 0 c10.387-4.356 21.809-23.15 13.827-40.099c-4.376-9.888-11.194-10.647-23.507-9.679c0.922-1.844 1.844-3.687 2.765-5.531 c4.735-12.074 36.49-45.243 45.63-37.334c-7.653 10.367-3.85 30.2 5.5 35.951c4.609 1.4 9.2 2.8 13.8 4.1 c9.952-6.143 17.665-8.836 19.358-23.507c-0.922 0.461-1.844 0.922-2.765 1.383c0 2.3 0 4.6 0 6.9 c-5.069 0.461-10.141 0.922-15.21 1.383c-3.226-1.844-6.453-3.687-9.679-5.531C197.053 72 300 57.4 341.6 39.389z"/><path fill-rule="evenodd" clip-rule="evenodd" fill="#FFFFFF" d="M716.354 67.044c24.707 0.3 92.9 51.9 94 76.1 c-4.065 7.841-8.363 14.084-17.976 16.593c0 0.5 0 0.9 0 1.383c2.766 0 5.5 0 8.3 0c10.89-4.517 16.712-8.903 24.889-15.21 c9.929 5.4 15.7 11.8 20.7 22.124c-9.035 12.548-16.06 24.359-17.976 44.248c2.765 3.7 5.5 7.4 8.3 11.1 c-2.65-19.975-0.16-30.379 12.445-38.717c2.305 0 4.6 0 6.9 0c18.767 25 37.9 43.6 52.5 74.7 c-13.817 81.738-83.97 134.697-135.508 181.139c-5.573-0.56-5.409-0.452-8.296-2.765c20.599-44.713 3.93-138.071 31.803-174.225 c2.765 0 5.5 0 8.3 0c5.07 3.7 10.1 7.4 15.2 11.062c0.389 8.5 0.3 9.491-1.383 16.6 c1.383-0.922 2.766-1.844 4.148-2.765c0-5.991 0-11.984 0-17.976c-14.614-22.556-30.981-23.399-55.31-15.21 c0.922-1.383 1.844-2.765 2.766-4.148c2.999-6.824 5.885-8.261 6.914-17.976c-5.756-14.916-15.052-27.641-33.186-26.272 c-1.844 2.305-3.687 4.609-5.531 6.914c26.359-7.455 21.4 31 11.1 45.63c-17.56 24.824-49.564 37.755-71.902 58.1 c-8.756 11.522-17.516 23.047-26.272 34.568c-1.844-0.461-3.687-0.922-5.531-1.383c-8.673-30.731 24.275-142.434 37.334-161.78 c8.508-12.604 25.271-21.683 30.42-37.334C725.18 116.2 678.7 105 716.4 67.044z"/><path fill-rule="evenodd" clip-rule="evenodd" fill="#FFFFFF" d="M691.465 134.798c7.905 0.7 9 2.4 13.8 5.5 c0.922 3.7 1.8 7.4 2.8 11.062c-2.766 3.687-5.531 7.375-8.296 11.062c-13.626 0.688-17.7-2.502-17.976-15.21 C685.011 143.1 688.2 138.9 691.5 134.798z"/><path fill-rule="evenodd" clip-rule="evenodd" fill="#FFFFFF" d="M914.085 279.986c19.769 12.1 46.5 61.6 29 88.5 c-29.534 45.476-114.926 123.047-185.287 124.446c-1.383-1.383-2.766-2.765-4.148-4.148c3.226-11.522 6.453-23.047 9.679-34.568 c8.756-5.53 17.516-11.062 26.272-16.593c20.492-15.377 72.587-59.798 78.816-85.73c14.497 4.5 25.3 16.2 37.3 1.4 c-13.405-0.498-14.659-5.243-20.741-12.445C885.372 317.7 903.6 295.7 914.1 279.986z"/><path fill-rule="evenodd" clip-rule="evenodd" fill="#FFFFFF" d="M60.936 295.196c9.532 1.3 20.9 0.7 29 5.5 c6.566 19.7 7 48.1 20.7 60.84c-20.802 37.879-23.183 93.4 19.4 99.557c0 1.8 0 3.7 0 5.5 c6.913 0 13.8 0 20.7 0c16.698-7.338 15.177-27.308 9.679-42.865c-3.687-1.383-7.375-2.765-11.062-4.148 c-0.922 1.383-1.844 2.766-2.765 4.148c5.459 2.9 5.3 2.9 5.5 11.062c-2.924 5.476-4.259 6.706-9.679 9.7 c-48.501-15.116-25.64-64.195 2.765-82.964c24.996 3.6 84.1 78.3 92.6 100.94c6.459 17.1 4.9 45.1 2.8 62.2 c-51.759 13.969-86.589-10.198-136.891-19.358c-33.047-6.018-62.899 8.446-91.261 1.383C-7.381 477.3 17.3 369.2 27.8 342.2 C35.19 323 50.3 310.5 60.9 295.196z"/><path fill-rule="evenodd" clip-rule="evenodd" fill="#FFFFFF" d="M124.542 322.851c13.136 2.5 22 17.9 8.3 26.3 c-8.977 6.408-15.182-0.015-19.358-9.679C117.167 333.9 120.9 328.4 124.5 322.851z"/><path fill-rule="evenodd" clip-rule="evenodd" fill="#FFFFFF" d="M124.542 326.999c-2.305 3.687-4.609 7.375-6.914 11.1 c1.383 3.2 2.8 6.5 4.1 9.679c1.383 0.5 2.8 0.9 4.1 1.383c3.226-2.305 6.453-4.609 9.679-6.914 c-0.173-8.28-1.292-9.273-4.148-13.827C129.151 327.9 126.8 327.5 124.5 326.999z"/><path fill-rule="evenodd" clip-rule="evenodd" fill="#FFFFFF" d="M958.333 382.308c28.09 29.5 11.9 111.654-9.679 132.7 c-12.252 12-30.578 10.818-48.396 17.976c0.922 0 1.8 0 2.8 0c33.094 18.8 54.98-19.053 70.52-27.655 c0.922 1.8 1.8 3.7 2.8 5.531c-2.396 25.988-8.257 56.377-15.21 76.051c-2.765 1.383-5.531 2.766-8.296 4.1 c-73.409-34.294-106.246-2.189-165.929 23.507c-12.651 5.447-55.026 29.269-56.692 8.296c4.87-15.031 8.552-33.785 19.358-42.865 c4.594-3.86 20.611-4.782 27.655-9.679c9.217-9.678 18.438-19.359 27.655-29.038c5.26-3.189 9.226-1.897 15.21-1.383 c0.461 2.8 0.9 5.5 1.4 8.296c0.922-0.461 1.844-0.922 2.765-1.383c-0.461-1.383-0.922-2.765-1.383-4.148 c-1.828-6.226-3.175-5.987-6.914-9.679c-26.958-0.338-36.304 13.55-55.31 20.741c0-0.922 0-1.844 0-2.765 c-5.533-10.011-4.114-26.156-1.383-38.717C823.994 506.2 919 420.6 958.3 382.308z"/><path fill-rule="evenodd" clip-rule="evenodd" fill="#FFFFFF" d="M248.988 596.633c-35.892-1.418-67.139-2.481-94.026 11.1 c-11.544 5.814-18.722 15.823-33.186 19.358c-5.538-15.941-7.171-19.031-17.976-31.803c-7.374 0.461-14.75 0.922-22.124 1.4 c-0.922 1.844-1.844 3.687-2.765 5.531c10.742-3.282 17.1 0.9 23.5 5.531c4.64 11.6 5.1 19.5 1.4 33.2 c-9.59 5.215-52.066 23.634-70.52 11.062c-14.212-9.683-26.541-101.305-22.124-123.064c57.017-20.031 126.12-2.752 174.2 11.1 c19.847 5.7 45.026-3.604 56.7 2.766C246.222 558.8 249 574.3 249 596.633z"/><path fill-rule="evenodd" clip-rule="evenodd" fill="#FFFFFF" d="M876.752 584.188c40.099-1.043 56.5 6.1 77.4 22.1 c-0.079 30.946-12.526 60.143-23.507 81.582c-10.6-3.226-21.203-6.453-31.803-9.679c-17.052 1.844-34.109 3.687-51.161 5.5 c-20.144-2.534-49.792-44.12-76.051-5.531c1.955 4.3 1 0 1.4 5.531c11.703-9.828 38.548-21.87 48.4 0 c0.922 3.7 1.8 7.4 2.8 11.062c-9.678 17.974-19.359 35.953-29.037 53.927c-44.378 9.047-93.535 4.8-88.495-47.013 c1.909-19.62 3.578-33.372 12.445-45.63C731.654 638.8 848.9 601.3 876.8 584.188z"/><g><path fill="#FFFFFF" d="M218.568 604.929c-34.402 14.721-112.861 14.458-92.643 67.754c-5.07-6.452-10.141-12.906-15.21-19.358 c-31.919 0.25-53.86 8.615-71.903 22.124C61.285 741.9 124 831.9 184 857.97c18.846-15.555 15.455-40.248 23.507-67.754 c12.292-41.99 40.387-75.65 51.161-120.298C267.953 631.4 253.8 603.7 218.6 604.929z M81.677 721.1 c5.07-4.609 10.141-9.219 15.21-13.828c-0.589-12.985-4.975-15.279-9.679-23.507c2.305-1.844 4.609-3.687 6.914-5.531 c2.304 0 4.6 0 6.9 0c2.765 3.7 5.5 7.4 8.3 11.062c0.461 4.1 0.9 8.3 1.4 12.4 C101.882 711.9 96.6 716.3 81.7 721.079z M164.642 708.634c14.618-17.605 29.6-24.364 19.358-53.927 c2.305-2.305 4.609-4.609 6.914-6.914c3.687 0 7.4 0 11.1 0c2.766 3.2 5.5 6.5 8.3 9.7 C221.361 683.3 181.9 703.9 164.6 708.634z"/></g><path fill-rule="evenodd" clip-rule="evenodd" fill="#FFFFFF" d="M878.134 689.276c12.904 1.8 25.8 3.7 38.7 5.5 c2.305 3.2 4.6 6.5 6.9 9.679c-5.948 30.163-52.481 102.6-82.964 105.088c-1.383-0.922-2.766-1.844-4.148-2.765 c-0.922-7.374-1.844-14.75-2.765-22.124c-5.263 37.079-31.411 79.087-74.668 73.285c-15.368-15.037-38.399-69.689-31.803-98.174 c14.99 4.3 56.012-0.812 58.075-1.383c3.188 21.629-1.371 32.467-11.062 47.013c32.4-11.966 32.889-67.301 51.161-94.026 C838.146 693 855 698.2 878.1 689.276z"/><g><path fill="#FFFFFF" d="M615.414 32.476c-22.688 29.674-53.175 55.081-63.606 96.792c-0.922 18.896-1.844 37.797-2.766 56.7 c-3.399 20.391-9.221 39.793-6.913 62.223c5.537 2.3 74.77-13.814 100.94-13.828c21.546-21.233 38.467-99.301 47.013-134.125 c0.461-13.826 0.922-27.656 1.383-41.482C672.145 46.1 645.4 33.3 615.4 32.476z M641.686 151.4 c-4.967 9.285-17.708 13.85-30.42 15.21c0-0.461 0-0.922 0-1.383c2.765-0.461 5.531-0.922 8.296-1.383 c-5.991-0.922-11.985-1.844-17.976-2.765c0.922 1.4 1.8 2.8 2.8 4.148c-8.667-3.855-9.488-4.713-8.296-15.21 c28.377-13.817 45.785-13.891 48.396-49.779C651.72 112 649.7 142.2 641.7 151.391z"/></g></g></svg>